<svg id="svg" version="1.1" width="400" height="400" xmlns="http://www.w3.org/2000/svg" xmlns:xlink="http://www.w3.org/1999/xlink" style="display: block;"><g id="svgg"><path id="path0" d="M210.200 114.402 C 209.705 114.616,210.390 114.660,212.000 114.518 C 213.430 114.392,214.675 114.223,214.767 114.144 C 215.120 113.839,210.958 114.074,210.200 114.402 M192.619 252.965 C 193.445 253.568,194.004 253.451,193.994 252.676 C 193.990 252.358,193.874 252.380,193.644 252.743 C 193.404 253.121,193.217 253.151,193.026 252.843 C 192.876 252.599,192.549 252.400,192.300 252.400 C 192.051 252.400,192.195 252.654,192.619 252.965 M193.657 257.163 C 193.255 257.413,193.236 257.575,193.584 257.790 C 194.133 258.129,194.545 257.829,194.342 257.238 C 194.258 256.996,193.976 256.965,193.657 257.163 M222.996 266.407 C 222.858 266.630,222.577 266.709,222.372 266.583 C 222.168 266.456,222.000 266.543,222.000 266.776 C 222.000 267.423,223.083 267.281,223.345 266.600 C 223.606 265.920,223.376 265.792,222.996 266.407 M305.206 300.994 C 304.463 301.761,303.932 302.450,304.027 302.525 C 304.122 302.600,304.806 301.973,305.546 301.131 C 307.229 299.218,307.012 299.131,305.206 300.994 M152.046 340.867 C 152.021 341.234,151.896 341.864,151.770 342.267 C 151.552 342.962,151.563 342.963,151.997 342.287 C 152.248 341.896,152.373 341.266,152.273 340.887 C 152.111 340.268,152.088 340.266,152.046 340.867 M294.764 370.733 C 294.980 371.136,295.471 371.721,295.855 372.033 C 296.287 372.384,296.190 372.104,295.601 371.300 C 294.551 369.865,294.157 369.598,294.764 370.733 " stroke="none" fill="#000000" fill-rule="evenodd"></path><path id="path1" d="" stroke="none" fill="#001c1c" fill-rule="evenodd"></path><path id="path2" d="" stroke="none" fill="#00143b" fill-rule="evenodd"></path><path id="path3" d="M63.178 61.500 L 61.800 63.000 63.300 61.622 C 64.696 60.338,64.984 60.000,64.678 60.000 C 64.612 60.000,63.937 60.675,63.178 61.500 M59.978 64.700 L 58.600 66.200 60.100 64.822 C 61.496 63.538,61.784 63.200,61.478 63.200 C 61.412 63.200,60.737 63.875,59.978 64.700 M213.300 114.676 C 213.685 114.776,214.315 114.776,214.700 114.676 C 215.085 114.575,214.770 114.493,214.000 114.493 C 213.230 114.493,212.915 114.575,213.300 114.676 M393.320 222.800 C 393.320 224.010,393.395 224.505,393.487 223.900 C 393.578 223.295,393.578 222.305,393.487 221.700 C 393.395 221.095,393.320 221.590,393.320 222.800 M157.200 222.824 C 157.200 223.057,156.975 223.112,156.700 222.947 C 156.301 222.707,156.300 222.771,156.697 223.260 C 156.970 223.597,157.105 223.992,156.997 224.137 C 156.888 224.282,156.925 224.305,157.077 224.190 C 157.406 223.940,157.682 222.400,157.397 222.400 C 157.289 222.400,157.200 222.591,157.200 222.824 M179.349 243.790 C 179.096 244.449,180.280 245.854,180.718 245.415 C 180.873 245.261,180.666 244.891,180.259 244.594 C 179.853 244.297,179.639 243.861,179.784 243.627 C 179.929 243.392,179.941 243.200,179.811 243.200 C 179.681 243.200,179.473 243.465,179.349 243.790 M389.354 244.577 C 389.232 244.894,389.203 245.479,389.289 245.877 C 389.387 246.328,389.524 246.112,389.654 245.300 C 389.871 243.938,389.730 243.596,389.354 244.577 M61.395 319.200 C 61.395 350.330,61.442 363.065,61.500 347.500 C 61.558 331.935,61.558 306.465,61.500 290.900 C 61.442 275.335,61.395 288.070,61.395 319.200 M316.100 289.499 C 319.565 289.566,325.235 289.566,328.700 289.499 C 332.165 289.433,329.330 289.378,322.400 289.378 C 315.470 289.378,312.635 289.433,316.100 289.499 M357.123 289.499 C 359.831 289.568,364.151 289.568,366.723 289.499 C 369.295 289.429,367.080 289.372,361.800 289.373 C 356.520 289.373,354.415 289.430,357.123 289.499 M181.200 306.855 C 181.200 307.045,181.650 307.200,182.200 307.200 C 182.750 307.200,183.200 307.131,183.200 307.047 C 183.200 306.962,182.750 306.807,182.200 306.702 C 181.650 306.597,181.200 306.666,181.200 306.855 M153.206 357.833 C 153.209 358.255,153.395 358.870,153.618 359.200 C 153.915 359.638,153.952 359.476,153.756 358.600 C 153.427 357.129,153.198 356.810,153.206 357.833 " stroke="none" fill="#002c4f" fill-rule="evenodd"></path><path id="path4" d="M185.000 5.992 C 181.275 6.352,170.478 7.596,169.600 7.767 C 169.270 7.832,168.550 7.994,168.000 8.127 C 167.450 8.261,166.100 8.475,165.000 8.603 C 163.900 8.731,162.460 8.994,161.800 9.188 C 161.140 9.382,158.800 9.933,156.600 10.412 C 154.400 10.892,152.240 11.391,151.800 11.521 C 151.360 11.652,150.846 11.717,150.658 11.665 C 150.470 11.614,150.110 11.738,149.858 11.941 C 149.606 12.144,148.590 12.440,147.600 12.600 C 146.610 12.760,145.620 13.029,145.400 13.199 C 145.180 13.369,144.376 13.641,143.613 13.805 C 142.850 13.968,141.950 14.246,141.613 14.422 C 141.276 14.598,139.380 15.229,137.400 15.825 C 135.420 16.421,133.620 17.038,133.400 17.196 C 133.180 17.355,131.470 18.034,129.600 18.706 C 126.468 19.831,124.501 20.630,120.801 22.282 C 117.571 23.723,108.769 28.141,105.800 29.811 C 104.040 30.801,101.970 31.924,101.200 32.306 C 99.733 33.033,99.590 33.128,98.039 34.407 C 97.510 34.843,96.930 35.200,96.749 35.200 C 95.770 35.200,78.800 47.375,78.800 48.077 C 78.800 48.255,78.590 48.400,78.334 48.400 C 78.077 48.400,77.582 48.674,77.234 49.009 C 76.358 49.850,74.028 51.840,72.666 52.909 C 70.418 54.674,63.219 61.637,58.000 67.093 C 54.761 70.479,53.419 71.999,49.100 77.171 C 48.715 77.632,48.400 78.187,48.400 78.405 C 48.400 78.622,48.255 78.800,48.077 78.800 C 47.301 78.800,34.800 96.388,34.800 97.481 C 34.800 97.730,34.662 97.993,34.492 98.067 C 33.608 98.450,24.981 114.507,22.386 120.600 C 22.199 121.040,21.578 122.457,21.006 123.748 C 20.435 125.040,19.137 128.370,18.124 131.148 C 17.110 133.927,16.151 136.380,15.993 136.600 C 15.834 136.820,15.478 137.990,15.200 139.200 C 14.922 140.410,14.560 141.580,14.394 141.800 C 14.228 142.020,13.960 142.830,13.799 143.600 C 13.638 144.370,13.395 145.180,13.259 145.400 C 13.123 145.620,12.999 145.890,12.984 146.000 C 12.833 147.047,12.282 149.157,11.991 149.800 C 11.618 150.624,10.704 154.598,9.821 159.243 C 9.544 160.696,9.215 162.053,9.088 162.257 C 8.962 162.461,8.741 163.702,8.596 165.014 C 8.451 166.326,8.080 168.570,7.772 170.000 C 7.237 172.481,6.906 175.433,5.952 186.200 C 5.434 192.041,5.741 217.255,6.351 219.000 C 6.582 219.660,6.955 222.180,7.180 224.600 C 7.638 229.522,7.718 230.080,8.609 234.600 C 8.956 236.360,9.412 238.880,9.621 240.200 C 9.831 241.520,10.174 243.050,10.384 243.600 C 10.594 244.150,10.942 245.590,11.158 246.800 C 11.375 248.010,11.992 250.350,12.530 252.000 C 13.069 253.650,13.642 255.624,13.805 256.387 C 13.968 257.150,14.255 258.050,14.442 258.387 C 14.629 258.724,14.996 259.810,15.258 260.800 C 15.925 263.317,15.900 263.236,16.506 264.893 C 16.806 265.713,17.175 266.508,17.326 266.659 C 17.477 266.810,17.606 267.218,17.614 267.567 C 17.621 267.915,17.975 268.920,18.400 269.800 C 18.825 270.680,19.179 271.704,19.186 272.076 C 19.194 272.448,19.355 272.849,19.545 272.966 C 19.735 273.083,20.118 273.994,20.397 274.990 C 20.676 275.985,21.061 276.800,21.252 276.800 C 21.443 276.800,21.600 277.087,21.600 277.438 C 21.600 277.789,21.858 278.554,22.174 279.138 C 22.490 279.722,24.123 282.990,25.803 286.400 C 30.424 295.778,36.518 306.400,37.276 306.400 C 37.454 306.400,37.600 306.670,37.600 307.000 C 37.600 307.330,37.780 307.600,38.000 307.600 C 38.260 307.600,38.400 302.325,38.400 292.575 L 38.400 277.550 37.368 275.275 C 36.165 272.624,35.929 272.082,34.808 269.400 C 34.348 268.300,33.798 267.087,33.586 266.705 C 33.374 266.323,33.200 265.820,33.200 265.586 C 33.200 265.352,32.840 264.416,32.400 263.506 C 31.960 262.595,31.600 261.596,31.600 261.285 C 31.600 260.975,31.344 260.154,31.031 259.460 C 30.718 258.767,30.071 256.940,29.593 255.400 C 29.115 253.860,28.477 251.970,28.175 251.200 C 27.872 250.430,27.506 249.080,27.360 248.200 C 27.215 247.320,26.960 246.420,26.793 246.200 C 26.627 245.980,26.359 244.990,26.199 244.000 C 26.039 243.010,25.793 242.020,25.654 241.800 C 25.404 241.406,24.463 236.688,23.461 230.800 C 23.180 229.150,22.844 227.530,22.714 227.200 C 22.584 226.870,22.267 224.710,22.011 222.400 C 21.755 220.090,21.490 217.840,21.422 217.400 C 20.461 211.172,20.438 188.944,21.387 182.800 C 21.506 182.030,21.810 179.510,22.063 177.200 C 22.316 174.890,22.648 172.910,22.800 172.800 C 22.952 172.690,23.274 171.160,23.516 169.400 C 24.193 164.467,25.304 158.622,25.606 158.400 C 25.756 158.290,26.004 157.400,26.156 156.423 C 26.309 155.446,26.708 153.736,27.042 152.623 C 28.577 147.515,30.472 141.737,30.819 141.105 C 31.028 140.723,31.201 140.183,31.202 139.905 C 31.204 139.627,31.454 138.922,31.759 138.339 C 32.063 137.755,32.525 136.585,32.784 135.739 C 33.043 134.892,33.413 133.840,33.606 133.400 C 33.799 132.960,34.326 131.755,34.778 130.722 C 35.230 129.689,35.600 128.748,35.600 128.631 C 35.600 128.356,38.311 122.390,38.794 121.600 C 38.996 121.270,39.865 119.560,40.725 117.800 C 41.584 116.040,43.843 111.999,45.744 108.820 C 47.645 105.640,49.200 102.895,49.200 102.720 C 49.200 102.544,49.380 102.400,49.600 102.400 C 49.820 102.400,50.000 102.139,50.000 101.820 C 50.000 101.501,50.225 101.096,50.500 100.920 C 51.068 100.557,52.800 98.175,52.800 97.757 C 52.800 97.606,53.430 96.714,54.200 95.774 C 54.970 94.834,55.600 93.961,55.600 93.833 C 55.600 93.705,55.878 93.285,56.218 92.900 C 56.558 92.515,57.455 91.390,58.211 90.400 C 60.502 87.404,61.666 85.999,64.821 82.423 C 66.483 80.541,68.373 78.389,69.021 77.642 C 70.547 75.884,75.930 70.522,77.619 69.079 C 78.921 67.966,85.225 62.398,87.264 60.559 C 87.849 60.032,88.458 59.600,88.616 59.600 C 88.868 59.600,90.979 57.890,92.834 56.183 C 93.182 55.862,93.602 55.600,93.766 55.600 C 93.931 55.600,94.834 54.970,95.774 54.200 C 96.714 53.430,97.606 52.800,97.757 52.800 C 98.175 52.800,100.557 51.068,100.920 50.500 C 101.096 50.225,101.501 50.000,101.820 50.000 C 102.139 50.000,102.400 49.820,102.400 49.600 C 102.400 49.380,102.544 49.200,102.720 49.200 C 102.895 49.200,105.640 47.645,108.820 45.744 C 111.999 43.843,116.040 41.584,117.800 40.725 C 119.560 39.865,121.270 38.996,121.600 38.794 C 122.390 38.311,128.356 35.600,128.631 35.600 C 128.827 35.600,130.744 34.783,133.860 33.371 C 134.554 33.057,135.364 32.794,135.660 32.786 C 135.957 32.779,136.920 32.425,137.800 32.000 C 138.680 31.575,139.627 31.221,139.905 31.214 C 140.183 31.206,140.723 31.026,141.105 30.814 C 141.487 30.601,143.330 29.959,145.200 29.387 C 147.070 28.814,148.889 28.193,149.241 28.006 C 149.594 27.819,150.721 27.541,151.746 27.387 C 152.771 27.233,153.700 26.961,153.811 26.782 C 153.922 26.603,155.000 26.333,156.206 26.182 C 157.413 26.031,158.400 25.787,158.400 25.639 C 158.400 25.491,158.715 25.339,159.100 25.300 C 159.485 25.261,161.240 24.944,163.000 24.595 C 164.760 24.245,167.258 23.788,168.550 23.579 C 169.843 23.369,171.373 23.092,171.950 22.963 C 173.320 22.656,176.881 22.125,179.400 21.852 C 180.500 21.733,182.030 21.531,182.800 21.403 C 188.632 20.435,212.239 20.457,217.600 21.436 C 217.930 21.496,220.090 21.755,222.400 22.011 C 224.710 22.267,226.870 22.577,227.200 22.700 C 227.530 22.823,228.250 22.994,228.800 23.080 C 231.310 23.474,233.885 23.949,234.800 24.186 C 235.350 24.328,237.060 24.638,238.600 24.874 C 240.140 25.111,241.580 25.441,241.800 25.607 C 242.020 25.773,243.010 26.040,244.000 26.200 C 244.990 26.360,245.980 26.627,246.200 26.793 C 246.420 26.960,247.320 27.215,248.200 27.360 C 249.080 27.506,250.430 27.876,251.200 28.182 C 251.970 28.489,254.040 29.193,255.800 29.748 C 259.748 30.992,261.435 31.577,263.060 32.266 C 263.754 32.560,264.439 32.800,264.582 32.800 C 264.726 32.800,265.689 33.173,266.722 33.629 C 268.470 34.400,270.276 35.179,272.200 35.992 C 272.640 36.178,274.585 37.066,276.523 37.965 C 278.461 38.864,280.216 39.600,280.423 39.600 C 280.630 39.600,280.800 39.760,280.800 39.957 C 280.800 40.153,281.205 40.415,281.700 40.540 C 282.195 40.664,284.812 42.034,287.515 43.583 C 290.219 45.132,292.589 46.400,292.782 46.400 C 292.975 46.400,293.193 46.535,293.267 46.700 C 293.458 47.131,296.706 49.200,297.191 49.200 C 297.416 49.200,297.600 49.380,297.600 49.600 C 297.600 49.820,297.797 50.000,298.037 50.000 C 298.277 50.000,298.952 50.369,299.537 50.820 C 300.122 51.271,301.860 52.518,303.400 53.592 C 306.112 55.483,307.560 56.559,308.532 57.409 C 308.789 57.633,309.540 58.223,310.200 58.720 C 317.645 64.322,325.575 71.617,332.294 79.043 C 336.205 83.366,340.890 88.983,342.400 91.159 C 342.950 91.952,343.625 92.744,343.900 92.920 C 344.175 93.096,344.400 93.416,344.400 93.632 C 344.400 93.847,345.143 94.963,346.051 96.112 C 347.574 98.037,349.673 101.114,351.182 103.630 C 351.522 104.196,352.333 105.546,352.985 106.630 C 353.637 107.713,354.312 108.660,354.485 108.733 C 354.658 108.807,354.800 109.053,354.800 109.281 C 354.800 109.509,355.419 110.714,356.174 111.958 C 357.950 114.880,361.985 122.861,361.993 123.467 C 361.997 123.723,362.135 123.993,362.300 124.067 C 362.465 124.140,363.031 125.280,363.558 126.600 C 364.627 129.278,365.851 132.188,366.418 133.400 C 366.862 134.348,368.661 139.356,370.657 145.200 C 372.069 149.335,372.850 152.053,373.644 155.600 C 373.865 156.590,374.202 157.760,374.391 158.200 C 374.711 158.944,375.527 163.003,376.468 168.534 C 377.014 171.741,376.762 171.721,369.574 168.009 C 368.741 167.579,358.334 163.494,355.800 162.602 C 354.700 162.215,353.260 161.666,352.600 161.382 C 348.504 159.619,347.558 159.254,346.446 159.010 C 345.766 158.861,345.106 158.572,344.981 158.369 C 344.855 158.166,344.428 158.000,344.030 158.000 C 343.633 158.000,342.879 157.663,342.354 157.252 C 341.829 156.841,340.817 156.377,340.105 156.221 C 339.392 156.066,338.706 155.772,338.581 155.569 C 338.455 155.366,338.048 155.199,337.676 155.198 C 337.304 155.196,336.484 154.926,335.854 154.598 C 335.224 154.269,334.531 154.000,334.315 154.000 C 334.098 154.000,333.354 153.738,332.660 153.418 C 331.231 152.758,328.473 151.752,326.400 151.134 C 325.630 150.905,324.811 150.563,324.580 150.376 C 324.349 150.188,323.359 149.928,322.380 149.798 C 321.401 149.667,319.970 149.396,319.200 149.196 C 318.430 148.995,316.765 148.721,315.500 148.587 C 313.888 148.416,313.200 148.172,313.200 147.771 C 313.200 147.308,312.271 147.197,308.300 147.182 C 301.201 147.155,294.838 146.834,293.000 146.409 C 292.120 146.205,290.519 145.925,289.441 145.786 C 288.364 145.647,287.194 145.384,286.841 145.202 C 284.729 144.108,279.522 142.800,277.283 142.800 C 274.989 142.800,274.749 142.718,274.404 141.811 C 274.178 141.215,273.585 140.716,272.914 140.556 C 272.301 140.410,271.620 140.158,271.400 139.997 C 271.180 139.836,270.308 139.481,269.461 139.208 C 268.615 138.936,267.445 138.463,266.861 138.159 C 266.278 137.854,265.406 137.604,264.924 137.602 C 264.442 137.601,263.945 137.434,263.819 137.231 C 263.694 137.028,263.008 136.734,262.295 136.579 C 261.583 136.423,260.571 135.959,260.046 135.548 C 259.521 135.137,258.868 134.800,258.595 134.800 C 258.322 134.800,257.874 134.530,257.600 134.200 C 257.326 133.870,256.685 133.600,256.175 133.600 C 255.665 133.600,255.149 133.440,255.028 133.245 C 254.907 133.050,254.217 132.780,253.493 132.644 C 252.769 132.508,251.279 131.813,250.182 131.098 C 249.084 130.384,247.691 129.543,247.085 129.228 C 246.396 128.870,246.125 128.515,246.361 128.279 C 246.849 127.791,246.467 126.800,245.791 126.800 C 245.502 126.800,245.207 126.662,245.133 126.492 C 244.951 126.072,239.366 122.800,238.830 122.800 C 238.594 122.800,238.400 122.620,238.400 122.400 C 238.400 122.180,238.143 122.000,237.829 122.000 C 237.514 122.000,237.011 121.775,236.710 121.500 C 236.410 121.225,235.542 120.662,234.782 120.249 C 231.479 118.453,229.786 117.461,229.600 117.212 C 229.421 116.973,225.947 116.201,220.200 115.124 C 217.578 114.633,207.457 114.689,201.400 115.229 C 196.933 115.627,194.459 116.220,192.000 117.482 C 191.450 117.764,190.610 117.996,190.133 117.998 C 189.657 117.999,189.207 118.135,189.133 118.300 C 188.926 118.766,183.710 119.935,180.600 120.213 C 179.060 120.351,176.764 120.809,175.498 121.232 C 174.233 121.654,172.508 122.000,171.665 122.000 C 170.823 122.000,169.091 122.209,167.817 122.465 C 166.204 122.789,165.299 122.805,164.837 122.516 C 164.472 122.288,163.550 121.968,162.787 121.805 C 162.024 121.641,161.220 121.365,161.000 121.191 C 160.780 121.017,159.700 120.753,158.600 120.604 C 156.738 120.351,152.737 119.021,151.780 118.336 C 151.549 118.170,150.604 117.914,149.680 117.766 C 148.756 117.619,148.000 117.355,148.000 117.181 C 148.000 117.006,147.458 116.745,146.796 116.599 C 146.134 116.454,145.099 116.096,144.496 115.805 C 143.893 115.513,142.455 115.151,141.300 115.000 C 140.146 114.849,139.100 114.562,138.977 114.363 C 138.675 113.874,131.476 113.899,130.319 114.392 C 129.813 114.607,127.150 114.953,124.400 115.161 C 115.915 115.801,112.885 116.549,106.900 119.481 C 103.985 120.909,101.597 122.195,101.592 122.339 C 101.588 122.482,100.958 123.318,100.192 124.196 C 99.427 125.073,98.800 126.018,98.800 126.296 C 98.800 126.573,98.662 126.800,98.494 126.800 C 98.226 126.800,96.800 130.297,96.800 130.954 C 96.800 131.483,97.715 131.153,99.029 130.151 C 100.381 129.120,100.907 129.007,106.000 128.659 C 107.983 128.523,111.917 128.848,114.444 129.356 C 114.970 129.462,116.480 129.753,117.800 130.003 C 119.120 130.253,120.493 130.612,120.851 130.801 C 121.209 130.990,122.156 131.268,122.955 131.418 C 123.755 131.568,124.498 131.835,124.607 132.011 C 124.715 132.186,125.568 132.456,126.502 132.610 C 128.085 132.870,129.367 133.352,133.400 135.203 C 138.445 137.519,140.352 138.460,141.663 139.282 C 142.467 139.787,143.997 140.717,145.063 141.349 C 147.290 142.670,154.000 149.320,154.000 150.207 C 154.000 150.533,154.144 150.800,154.321 150.800 C 154.498 150.800,154.948 151.655,155.323 152.700 C 156.804 156.831,155.200 160.741,152.000 160.801 C 151.230 160.815,149.160 161.191,147.400 161.635 C 145.640 162.079,143.064 162.702,141.676 163.020 C 140.287 163.338,138.847 163.755,138.476 163.946 C 138.104 164.138,137.133 164.415,136.317 164.562 C 135.501 164.709,134.331 165.092,133.717 165.412 C 133.103 165.733,132.206 165.996,131.724 165.998 C 131.242 165.999,130.750 166.157,130.632 166.348 C 130.514 166.540,129.831 166.814,129.115 166.957 C 127.881 167.204,122.026 169.922,121.600 170.446 C 121.490 170.581,120.950 170.828,120.400 170.993 C 119.850 171.159,119.130 171.522,118.800 171.800 C 118.470 172.078,117.795 172.429,117.300 172.580 C 116.805 172.730,116.400 173.022,116.400 173.227 C 116.400 173.432,116.195 173.600,115.945 173.600 C 113.860 173.600,101.600 184.274,101.600 186.089 C 101.600 187.130,113.823 186.037,120.800 184.373 C 121.790 184.136,123.801 183.731,125.269 183.472 C 126.736 183.212,128.071 182.865,128.235 182.700 C 128.399 182.535,128.998 182.394,129.567 182.386 C 130.135 182.379,131.320 182.025,132.200 181.600 C 133.080 181.175,134.075 180.821,134.411 180.814 C 134.747 180.806,135.422 180.520,135.912 180.177 C 137.019 179.401,137.598 179.725,137.606 181.124 C 137.614 182.460,137.886 182.839,139.399 183.615 C 140.208 184.030,140.663 184.614,140.799 185.415 C 140.971 186.431,141.243 186.654,142.700 186.977 C 144.046 187.275,144.400 187.530,144.400 188.200 C 144.400 188.666,144.664 189.396,144.987 189.824 C 145.797 190.893,145.806 194.746,145.000 195.055 C 144.670 195.182,144.400 195.521,144.400 195.809 C 144.400 196.098,144.188 196.404,143.929 196.490 C 143.051 196.783,144.036 197.642,144.934 197.367 L 145.800 197.101 144.900 198.076 C 143.771 199.300,143.762 199.871,144.867 200.221 L 145.733 200.496 144.773 201.221 C 143.465 202.207,143.988 202.553,146.104 202.101 C 147.810 201.738,147.859 201.755,147.689 202.648 L 147.512 203.570 149.856 202.779 C 151.145 202.344,152.515 201.809,152.900 201.590 C 153.613 201.186,153.939 201.743,153.241 202.174 C 152.855 202.413,151.336 205.198,150.741 206.758 C 150.416 207.611,150.586 207.548,152.288 206.187 C 153.339 205.345,154.463 204.464,154.784 204.228 C 155.398 203.779,154.237 205.587,152.327 208.058 C 150.569 210.332,150.986 210.650,153.581 209.012 L 155.146 208.024 154.921 209.512 C 154.797 210.330,154.539 211.171,154.348 211.380 C 153.605 212.192,153.937 214.742,154.758 214.527 C 155.483 214.337,155.493 214.439,154.987 216.861 C 154.371 219.816,154.383 219.855,155.597 218.803 C 156.866 217.702,156.871 217.710,156.636 220.260 C 156.416 222.644,156.664 223.658,157.244 222.743 C 157.497 222.344,157.589 222.432,157.594 223.076 C 157.597 223.558,157.420 224.064,157.200 224.200 C 156.711 224.502,156.667 225.600,157.144 225.600 C 157.697 225.600,162.400 221.016,162.400 220.476 C 162.400 220.206,162.895 219.223,163.500 218.292 C 164.105 217.361,164.811 216.060,165.070 215.400 C 165.858 213.386,165.745 217.639,164.944 220.146 C 164.262 222.279,164.017 222.833,162.793 225.012 C 162.391 225.728,161.935 227.188,161.780 228.257 C 161.626 229.326,161.366 230.380,161.204 230.600 C 161.042 230.820,160.987 231.450,161.083 232.000 C 161.178 232.550,161.350 233.945,161.465 235.100 C 161.826 238.729,163.070 237.401,163.241 233.203 C 163.319 231.309,163.655 230.016,164.525 228.276 C 165.174 226.978,165.914 225.095,166.170 224.091 C 166.627 222.297,167.665 221.132,168.267 221.734 C 168.435 221.902,168.596 225.140,168.624 228.930 C 168.656 233.280,168.846 236.138,169.138 236.684 C 169.392 237.159,169.600 238.099,169.600 238.774 C 169.600 239.448,169.744 240.000,169.920 240.000 C 170.694 240.000,171.200 238.904,171.203 237.220 C 171.212 231.191,172.062 228.425,172.593 232.695 C 172.751 233.963,172.997 235.180,173.140 235.400 C 173.283 235.620,173.581 236.610,173.803 237.600 C 174.024 238.590,174.384 239.357,174.603 239.304 C 175.211 239.157,175.320 234.372,174.741 233.289 C 174.347 232.554,174.343 232.183,174.719 231.581 C 174.984 231.157,175.200 230.538,175.200 230.205 C 175.200 229.285,175.976 229.483,176.359 230.500 C 176.545 230.995,176.815 232.750,176.957 234.400 C 177.409 239.638,177.845 242.148,178.329 242.310 C 178.588 242.396,178.800 242.645,178.800 242.862 C 178.800 243.079,179.079 243.536,179.420 243.877 C 179.979 244.437,180.020 244.405,179.843 243.548 C 178.530 237.221,179.748 234.280,181.394 239.800 C 181.788 241.120,182.228 242.380,182.373 242.600 C 182.518 242.820,183.047 244.080,183.549 245.400 C 184.052 246.720,184.620 248.195,184.813 248.679 C 185.230 249.724,187.942 252.800,188.447 252.800 C 189.426 252.800,188.059 249.378,186.672 248.359 C 186.492 248.227,186.402 247.438,186.472 246.607 C 186.596 245.148,186.655 245.226,188.171 248.848 C 189.707 252.516,190.885 254.459,192.700 256.315 C 193.364 256.994,193.600 257.078,193.600 256.632 C 193.600 256.002,192.379 253.149,191.960 252.800 C 191.540 252.450,190.920 251.040,190.641 249.800 C 190.397 248.716,190.471 248.764,191.408 250.300 C 192.523 252.128,193.421 252.580,192.995 251.100 C 192.201 248.336,192.189 248.337,194.320 251.000 C 194.496 251.220,195.081 252.201,195.620 253.180 C 196.159 254.158,197.185 255.569,197.900 256.314 C 198.615 257.059,199.200 257.812,199.200 257.988 C 199.200 258.163,199.560 258.401,200.000 258.516 C 200.817 258.729,201.158 257.869,200.435 257.421 C 200.057 257.188,198.746 254.616,198.038 252.719 C 197.707 251.832,197.739 251.678,198.217 251.862 C 198.538 251.985,198.802 252.291,198.805 252.543 C 198.818 253.600,203.293 258.400,204.267 258.400 C 204.560 258.400,204.800 258.040,204.800 257.600 C 204.800 256.619,205.017 256.604,206.191 257.500 C 206.695 257.885,207.513 258.470,208.009 258.800 C 208.505 259.130,209.749 260.030,210.773 260.800 C 213.915 263.162,214.309 263.318,214.807 262.388 C 215.043 261.945,215.128 261.407,214.995 261.192 C 214.531 260.441,215.016 260.814,217.346 263.000 C 219.887 265.384,220.267 265.565,220.484 264.500 C 220.588 263.989,220.785 264.157,221.213 265.126 C 221.700 266.227,221.970 266.420,222.800 266.259 C 223.554 266.113,224.140 266.402,225.181 267.433 C 226.689 268.926,227.200 269.121,227.200 268.200 C 227.200 267.870,227.380 267.600,227.600 267.600 C 227.820 267.600,228.000 267.780,228.000 268.000 C 228.000 268.220,228.197 268.400,228.439 268.400 C 228.717 268.400,228.827 267.660,228.739 266.369 C 228.608 264.456,228.635 264.389,229.200 265.223 C 230.349 266.917,234.530 271.200,235.036 271.200 C 235.315 271.200,235.605 270.795,235.680 270.300 C 235.799 269.507,235.932 269.598,236.796 271.064 C 238.077 273.238,241.172 275.293,242.913 275.124 L 244.200 275.000 244.426 264.800 C 244.745 250.390,243.949 251.200,257.783 251.200 C 267.329 251.200,269.304 251.520,269.908 253.163 C 270.036 253.513,270.335 253.928,270.571 254.085 C 270.867 254.282,271.062 263.227,271.200 282.852 C 271.356 305.138,271.509 311.370,271.900 311.500 C 272.175 311.592,272.400 311.816,272.400 311.998 C 272.400 312.181,272.985 313.237,273.700 314.345 C 274.415 315.453,275.620 317.359,276.378 318.580 C 278.056 321.282,278.553 321.323,280.600 318.921 C 281.480 317.889,286.430 312.695,291.600 307.380 C 296.770 302.064,302.573 296.073,304.495 294.066 C 306.418 292.060,308.443 290.304,308.995 290.165 C 309.548 290.027,310.000 289.753,310.000 289.557 C 310.000 289.355,315.405 289.200,322.400 289.200 C 329.504 289.200,334.800 289.354,334.800 289.561 C 334.800 289.759,335.347 290.112,336.015 290.345 C 336.817 290.625,337.375 291.183,337.655 291.985 C 337.888 292.653,338.241 293.200,338.439 293.200 C 339.065 293.200,338.831 296.278,338.100 297.658 C 337.715 298.386,328.250 308.151,317.068 319.359 L 296.735 339.737 297.924 340.848 C 298.578 341.459,299.808 342.816,300.657 343.864 C 301.505 344.911,303.685 347.244,305.500 349.048 C 307.315 350.852,308.800 352.452,308.800 352.603 C 308.800 353.555,314.001 358.057,314.511 357.547 C 314.812 357.246,315.719 356.550,316.526 356.000 C 317.334 355.450,317.996 354.865,317.997 354.700 C 317.999 354.535,318.261 354.400,318.580 354.400 C 318.899 354.400,319.304 354.156,319.480 353.858 C 319.656 353.561,320.236 353.088,320.769 352.808 C 321.301 352.528,322.172 351.781,322.704 351.149 C 323.236 350.517,323.861 350.000,324.092 350.000 C 324.324 350.000,325.073 349.474,325.757 348.831 C 326.441 348.188,328.710 346.112,330.800 344.218 C 336.508 339.045,344.934 330.394,347.900 326.663 C 348.281 326.184,348.405 322.144,348.419 309.717 C 348.441 291.408,348.497 291.000,351.100 290.256 C 351.815 290.052,352.400 289.730,352.400 289.542 C 352.400 289.354,356.630 289.200,361.800 289.200 C 367.800 289.200,371.200 289.345,371.200 289.600 C 371.200 290.368,372.871 290.014,373.084 289.200 C 373.199 288.760,373.438 288.400,373.615 288.400 C 373.792 288.400,374.055 287.860,374.200 287.200 C 374.345 286.540,374.615 286.000,374.800 286.000 C 374.985 286.000,375.255 285.460,375.400 284.800 C 375.545 284.140,375.815 283.600,376.000 283.600 C 376.185 283.600,376.451 283.078,376.591 282.439 C 376.732 281.801,377.196 280.592,377.623 279.754 C 378.050 278.916,378.400 277.999,378.400 277.715 C 378.400 277.432,378.560 277.200,378.755 277.200 C 378.951 277.200,379.229 276.570,379.374 275.800 C 379.518 275.030,379.786 274.400,379.968 274.400 C 380.151 274.400,380.408 273.860,380.540 273.200 C 380.672 272.540,381.144 271.200,381.590 270.222 C 382.035 269.244,382.400 268.275,382.400 268.068 C 382.400 267.861,382.669 267.176,382.998 266.546 C 383.326 265.916,383.596 264.995,383.598 264.500 C 383.599 264.005,383.760 263.600,383.957 263.600 C 384.153 263.600,384.546 262.430,384.830 261.000 C 385.114 259.570,385.474 258.400,385.629 258.400 C 385.784 258.400,386.037 257.725,386.191 256.900 C 386.345 256.075,386.612 255.220,386.784 255.000 C 386.955 254.780,387.225 253.880,387.384 253.000 C 387.542 252.120,387.815 251.220,387.990 251.000 C 388.165 250.780,388.530 249.250,388.800 247.600 C 389.070 245.950,389.433 244.420,389.606 244.200 C 389.780 243.980,390.050 242.585,390.207 241.100 C 390.365 239.615,390.631 238.400,390.800 238.400 C 390.969 238.400,391.235 237.199,391.393 235.732 C 391.550 234.264,391.833 232.779,392.022 232.432 C 392.356 231.818,393.328 223.711,393.992 216.000 C 394.412 211.135,394.423 188.915,394.009 184.200 C 393.593 179.470,392.437 169.980,392.173 169.130 C 392.059 168.761,391.698 166.961,391.371 165.130 C 390.243 158.810,389.962 157.433,389.431 155.620 C 389.138 154.619,388.474 152.000,387.956 149.800 C 387.438 147.600,386.898 145.710,386.756 145.600 C 386.614 145.490,386.370 144.636,386.214 143.702 C 386.058 142.768,385.786 141.915,385.611 141.807 C 385.435 141.698,385.168 140.932,385.019 140.104 C 384.719 138.443,383.322 134.360,382.519 132.800 C 382.236 132.250,382.004 131.581,382.002 131.314 C 382.001 131.046,381.710 130.146,381.356 129.314 C 381.001 128.481,380.446 127.170,380.121 126.400 C 379.796 125.630,379.276 124.490,378.965 123.868 C 378.654 123.245,378.400 122.555,378.400 122.335 C 378.400 120.685,365.020 95.895,363.057 93.908 C 362.781 93.628,362.444 93.107,362.309 92.748 C 362.064 92.101,357.917 86.102,356.123 83.800 C 354.955 82.301,354.882 82.206,353.155 79.932 C 342.782 66.272,324.604 49.206,310.400 39.793 C 309.410 39.137,308.362 38.375,308.071 38.100 C 307.781 37.825,307.301 37.600,307.005 37.600 C 306.709 37.600,306.407 37.433,306.333 37.229 C 306.172 36.781,298.673 32.102,295.600 30.532 C 294.390 29.914,293.310 29.298,293.200 29.164 C 293.090 29.030,290.120 27.532,286.600 25.835 C 283.080 24.138,279.722 22.491,279.138 22.175 C 278.554 21.859,277.789 21.600,277.438 21.600 C 277.087 21.600,276.800 21.443,276.800 21.252 C 276.800 21.061,275.985 20.676,274.990 20.397 C 273.994 20.118,273.083 19.735,272.966 19.545 C 272.849 19.355,272.448 19.194,272.076 19.186 C 271.704 19.179,270.680 18.825,269.800 18.400 C 268.920 17.975,267.921 17.621,267.580 17.614 C 267.239 17.606,266.789 17.443,266.580 17.251 C 266.371 17.059,264.580 16.410,262.600 15.809 C 260.620 15.207,258.707 14.567,258.349 14.385 C 257.991 14.203,257.001 13.926,256.149 13.770 C 255.297 13.613,254.510 13.376,254.400 13.242 C 254.133 12.919,249.143 11.600,246.448 11.140 C 245.265 10.938,243.991 10.609,243.617 10.409 C 243.244 10.209,241.962 9.932,240.769 9.793 C 239.576 9.654,238.240 9.382,237.800 9.190 C 237.360 8.997,235.650 8.635,234.000 8.386 C 232.350 8.138,230.550 7.857,230.000 7.763 C 229.450 7.670,227.020 7.408,224.600 7.182 C 222.180 6.956,219.660 6.579,219.000 6.346 C 217.545 5.831,189.677 5.541,185.000 5.992 M197.002 134.802 C 197.303 135.051,197.671 135.828,197.820 136.528 C 197.970 137.227,198.264 138.013,198.473 138.273 C 199.551 139.614,195.165 143.281,192.435 143.322 C 185.414 143.428,184.796 136.700,191.600 134.233 C 192.540 133.892,196.395 134.298,197.002 134.802 M249.600 324.000 L 249.600 391.600 257.800 391.600 L 266.000 391.600 266.000 375.598 L 266.000 359.595 267.900 357.755 C 268.945 356.744,271.195 354.544,272.899 352.868 L 275.999 349.820 277.251 351.210 C 277.939 351.975,279.605 353.786,280.951 355.236 C 282.298 356.686,284.930 359.560,286.800 361.622 C 288.670 363.685,291.457 366.729,292.993 368.387 C 294.530 370.044,295.970 371.608,296.193 371.862 C 296.417 372.116,297.770 373.561,299.200 375.073 C 300.630 376.585,302.494 378.627,303.341 379.611 C 304.189 380.595,305.989 382.584,307.341 384.030 C 308.694 385.477,310.790 387.771,312.000 389.129 L 314.200 391.598 325.500 391.599 C 331.715 391.600,336.799 391.465,336.797 391.300 C 336.794 391.002,334.652 388.610,329.884 383.579 C 326.477 379.985,318.176 371.071,315.774 368.427 C 314.688 367.233,313.260 365.681,312.600 364.979 C 310.542 362.790,301.899 353.519,299.800 351.249 C 298.700 350.060,297.260 348.503,296.600 347.789 C 295.940 347.075,294.005 345.022,292.300 343.227 C 290.595 341.431,289.200 339.787,289.200 339.572 C 289.200 339.357,299.100 329.347,311.200 317.328 C 323.300 305.308,333.200 295.322,333.200 295.137 C 333.200 294.952,328.356 294.800,322.436 294.800 L 311.673 294.800 309.336 297.253 C 308.051 298.602,305.200 301.556,303.000 303.818 C 296.023 310.992,278.723 328.821,275.400 332.263 C 273.640 334.085,270.892 336.932,269.294 338.588 C 267.696 340.245,266.301 341.600,266.194 341.600 C 266.087 341.600,266.000 322.430,266.000 299.000 L 266.000 256.400 257.800 256.400 L 249.600 256.400 249.600 324.000 M373.174 256.839 C 375.980 257.680,376.400 259.454,376.400 270.472 C 376.400 284.767,376.784 284.400,361.842 284.400 C 351.390 284.400,348.400 283.910,348.400 282.198 C 348.400 281.906,348.175 281.592,347.900 281.500 C 347.521 281.375,347.371 278.835,347.281 271.050 C 347.145 259.338,347.467 257.749,350.149 256.885 C 351.898 256.321,371.317 256.283,373.174 256.839 M352.400 270.407 L 352.400 279.215 361.700 279.107 L 371.000 279.000 371.108 270.300 L 371.216 261.600 361.808 261.600 L 352.400 261.600 352.400 270.407 M43.867 263.067 C 43.720 263.213,43.600 292.193,43.600 327.467 L 43.600 391.600 84.808 391.600 L 126.017 391.600 125.908 383.700 L 125.800 375.800 93.500 375.698 L 61.200 375.595 61.200 319.198 L 61.200 262.800 52.667 262.800 C 47.973 262.800,44.013 262.920,43.867 263.067 M173.905 291.828 C 173.847 291.884,172.395 292.126,170.678 292.364 C 167.844 292.758,164.707 293.546,162.600 294.393 C 160.589 295.202,155.527 297.727,155.088 298.141 C 154.820 298.393,153.803 299.140,152.828 299.800 C 149.950 301.749,146.175 305.759,143.600 309.602 C 143.270 310.095,142.804 310.704,142.565 310.956 C 141.968 311.583,138.800 318.112,138.800 318.714 C 138.800 318.981,138.631 319.200,138.425 319.200 C 138.218 319.200,137.927 320.012,137.778 321.005 C 137.629 321.998,137.364 322.899,137.189 323.007 C 137.013 323.115,136.745 323.968,136.593 324.902 C 136.441 325.836,136.045 327.590,135.714 328.800 C 134.313 333.913,134.633 354.738,136.193 360.000 C 136.487 360.990,137.042 362.880,137.428 364.200 C 137.813 365.520,138.260 366.870,138.420 367.200 C 139.671 369.776,140.800 372.421,140.800 372.775 C 140.800 373.009,140.968 373.200,141.173 373.200 C 141.378 373.200,141.670 373.591,141.822 374.069 C 141.974 374.547,142.255 375.132,142.448 375.369 C 142.640 375.606,143.518 376.790,144.399 378.000 C 146.465 380.839,150.717 385.163,152.894 386.640 C 153.832 387.277,154.690 387.910,154.800 388.047 C 155.013 388.314,158.482 390.081,160.800 391.104 C 161.570 391.443,162.650 391.942,163.200 392.211 C 163.750 392.480,165.100 392.829,166.200 392.987 C 167.300 393.145,168.442 393.474,168.738 393.718 C 169.480 394.329,185.180 394.614,187.800 394.065 C 196.591 392.221,198.245 391.578,204.364 387.619 C 209.082 384.566,216.800 376.372,216.800 374.416 C 216.800 374.219,217.026 373.819,217.302 373.529 C 217.953 372.844,219.701 369.151,220.581 366.600 C 220.960 365.500,221.427 364.301,221.617 363.935 C 221.807 363.569,222.085 362.354,222.233 361.235 C 222.382 360.116,222.630 359.200,222.785 359.200 C 222.940 359.200,223.079 358.975,223.093 358.700 C 223.108 358.425,223.345 356.670,223.621 354.800 C 224.620 348.036,224.079 329.477,222.816 327.159 C 222.624 326.806,222.341 325.681,222.188 324.659 C 222.035 323.636,221.773 322.800,221.607 322.800 C 221.441 322.800,221.200 322.155,221.072 321.367 C 220.582 318.346,217.168 311.866,213.504 307.000 C 209.900 302.215,199.736 294.800,196.781 294.800 C 196.351 294.800,196.000 294.640,196.000 294.445 C 196.000 294.249,195.325 293.963,194.500 293.809 C 193.675 293.655,192.820 293.385,192.600 293.209 C 191.572 292.387,174.607 291.134,173.905 291.828 M353.600 343.200 L 353.600 391.600 361.800 391.600 L 370.000 391.600 370.000 343.200 L 370.000 294.800 361.800 294.800 L 353.600 294.800 353.600 343.200 M185.200 307.363 C 188.308 307.964,192.051 309.136,192.400 309.617 C 192.510 309.768,192.983 310.012,193.452 310.158 C 196.752 311.187,203.091 319.696,204.658 325.200 C 206.877 332.996,207.938 350.171,206.388 353.200 C 206.219 353.530,205.951 354.880,205.791 356.200 C 205.632 357.520,205.364 358.780,205.197 359.000 C 205.029 359.220,204.761 360.030,204.600 360.800 C 204.293 362.271,201.715 367.894,201.011 368.629 C 200.785 368.865,200.168 369.675,199.639 370.429 C 198.825 371.590,197.650 372.689,194.306 375.412 C 193.146 376.357,190.809 377.534,189.549 377.808 C 188.807 377.969,188.106 378.248,187.990 378.428 C 187.069 379.866,172.910 379.645,170.041 378.148 C 169.469 377.849,168.700 377.604,168.333 377.602 C 167.967 377.601,167.607 377.465,167.533 377.300 C 167.460 377.135,166.680 376.646,165.800 376.213 C 161.857 374.272,154.400 364.552,154.400 361.353 C 154.400 361.027,154.149 360.274,153.842 359.680 C 153.534 359.086,153.090 356.980,152.853 355.000 C 151.733 345.617,151.568 341.831,152.085 337.304 C 152.758 331.395,153.310 327.773,153.592 327.400 C 153.759 327.180,154.021 326.303,154.175 325.451 C 154.329 324.599,154.608 323.609,154.794 323.251 C 154.981 322.893,155.619 321.610,156.211 320.400 C 158.918 314.870,166.163 308.400,169.650 308.400 C 170.036 308.400,170.451 308.241,170.571 308.047 C 170.771 307.723,172.890 307.359,176.973 306.947 C 177.838 306.859,178.638 306.696,178.750 306.583 C 179.004 306.330,181.276 306.604,185.200 307.363 M66.800 331.118 L 66.800 341.835 68.300 343.225 C 69.125 343.990,71.057 345.692,72.592 347.008 C 74.128 348.323,75.748 349.732,76.192 350.137 C 78.520 352.260,92.345 362.400,92.913 362.400 C 93.066 362.400,93.558 362.715,94.006 363.100 C 94.828 363.806,97.036 365.199,98.700 366.062 C 99.195 366.318,99.600 366.680,99.600 366.864 C 99.600 367.049,99.794 367.200,100.030 367.200 C 100.267 367.200,101.693 367.920,103.200 368.800 L 105.940 370.400 116.570 370.400 C 122.778 370.400,127.200 370.553,127.200 370.768 C 127.200 370.971,127.740 371.255,128.400 371.400 C 129.060 371.545,129.600 371.816,129.600 372.003 C 129.600 372.190,129.915 372.657,130.300 373.042 C 130.854 373.595,131.028 374.592,131.135 377.809 L 131.269 381.877 132.735 382.514 C 135.946 383.910,138.280 384.716,139.898 384.986 C 140.832 385.142,141.697 385.434,141.822 385.635 C 142.134 386.141,143.200 386.094,143.200 385.574 C 143.200 385.340,142.660 384.694,142.000 384.139 C 141.340 383.583,140.800 382.884,140.800 382.584 C 140.800 382.285,140.575 381.896,140.300 381.720 C 139.638 381.296,138.000 378.944,138.000 378.416 C 138.000 378.187,137.840 378.000,137.643 378.000 C 137.447 378.000,137.177 377.563,137.043 377.028 C 136.909 376.493,136.574 375.816,136.299 375.522 C 135.617 374.792,134.483 372.437,134.170 371.100 C 134.029 370.495,133.771 370.000,133.597 370.000 C 133.422 370.000,133.063 369.096,132.798 367.991 C 132.342 366.089,130.417 364.466,128.522 364.386 C 128.345 364.379,127.480 364.025,126.600 363.600 C 125.720 363.175,124.775 362.821,124.500 362.814 C 124.225 362.806,124.000 362.620,124.000 362.400 C 124.000 362.180,123.806 362.000,123.569 362.000 C 123.183 362.000,116.696 358.890,115.200 357.988 C 111.428 355.713,103.265 350.941,102.800 350.740 C 102.470 350.596,101.803 350.101,101.317 349.640 C 100.831 349.178,100.290 348.800,100.115 348.800 C 99.939 348.800,98.480 347.810,96.872 346.600 C 95.263 345.390,93.819 344.400,93.663 344.400 C 93.506 344.400,93.096 344.085,92.751 343.700 C 92.407 343.315,91.720 342.730,91.225 342.400 C 90.730 342.070,90.002 341.530,89.608 341.200 C 89.213 340.870,88.195 340.060,87.346 339.400 C 86.496 338.740,84.972 337.435,83.959 336.500 C 82.946 335.565,82.020 334.800,81.901 334.800 C 81.343 334.800,69.118 322.840,68.102 321.300 C 66.932 319.527,66.800 320.520,66.800 331.118 M276.700 361.876 C 276.315 361.976,276.000 362.206,276.000 362.386 C 276.000 362.566,275.505 362.837,274.900 362.987 C 274.295 363.138,273.215 363.538,272.500 363.876 L 271.200 364.491 271.200 372.646 C 271.200 381.769,271.057 381.405,274.089 380.017 C 275.030 379.586,276.960 378.731,278.378 378.117 C 289.567 373.269,289.907 372.924,286.533 369.854 C 285.580 368.987,284.800 368.105,284.800 367.894 C 284.800 367.684,283.495 366.185,281.900 364.564 C 279.097 361.715,278.500 361.405,276.700 361.876 M241.600 374.381 C 240.997 374.736,236.101 375.772,232.000 376.411 C 228.106 377.018,227.810 377.073,227.200 377.310 C 226.870 377.438,225.389 377.660,223.909 377.803 L 221.217 378.062 219.941 380.031 C 219.239 381.114,218.529 382.000,218.362 382.000 C 218.195 382.000,218.000 382.267,217.929 382.594 C 217.786 383.250,210.490 390.800,209.998 390.800 C 209.829 390.800,208.774 391.430,207.655 392.200 C 206.535 392.970,205.399 393.600,205.130 393.600 C 204.760 393.600,204.753 393.713,205.101 394.061 C 206.225 395.185,231.757 392.632,237.800 390.791 C 238.460 390.590,240.033 390.305,241.296 390.158 C 244.487 389.787,244.434 389.937,244.309 381.548 L 244.200 374.200 243.200 374.114 C 242.650 374.066,241.930 374.187,241.600 374.381 " stroke="none" fill="#013e53" fill-rule="evenodd"></path></g></svg>